PathFileType	4	(X/Y/Z)	C:\Git\research_data\torsion_deformities_healthy_kinematics\simulations\P03\pre\Static01\markers_HJC.trc
DataRate	CameraRate	NumFrames	NumMarkers	Units	OrigDataRate	OrigDataStartFrame	OrigNumFrames
150	150	4	38	mm	150	57	150
Frame#	Time	C7			T10			CLAV			STRN			RBAK			SACR			LASI			RASI			LT1			LT2			LT3			LS1			LS2			LS3			LHEE			LTOE			RT1			RT2			RT3			RS1			RS2			RS3			RHEE			RTOE			LKNE			LKNM			LANK			LANM			RKNM			RKNE			RANM			RANK			LKJC			RKJC			LAJC			RAJC			LHJC			RHJC		
		X1	Y1	Z1	X2	Y2	Z2	X3	Y3	Z3	X4	Y4	Z4	X5	Y5	Z5	X6	Y6	Z6	X7	Y7	Z7	X8	Y8	Z8	X9	Y9	Z9	X10	Y10	Z10	X11	Y11	Z11	X12	Y12	Z12	X13	Y13	Z13	X14	Y14	Z14	X15	Y15	Z15	X16	Y16	Z16	X17	Y17	Z17	X18	Y18	Z18	X19	Y19	Z19	X20	Y20	Z20	X21	Y21	Z21	X22	Y22	Z22	X23	Y23	Z23	X24	Y24	Z24	X25	Y25	Z25	X26	Y26	Z26	X27	Y27	Z27	X28	Y28	Z28	X29	Y29	Z29	X30	Y30	Z30	X31	Y31	Z31	X32	Y32	Z32	X33	Y33	Z33	X34	Y34	Z34	X35	Y35	Z35	X36	Y36	Z36	X37	Y37	Z37	X38	Y38	Z38	

57	0.373333	444.131409	1274.638306	-964.769897	446.218811	1095.695801	-914.511230	428.329224	1212.424072	-1095.463501	423.900024	1159.267334	-1127.656006	543.104919	1178.167847	-933.588379	431.177551	875.592712	-915.246460	279.122406	870.840210	-1070.887207	521.998047	878.936218	-1123.509399	244.145157	586.338196	-1127.023315	232.230713	474.575409	-1078.226929	277.160767	531.941833	-1202.057861	282.819366	217.242310	-1032.878906	342.180115	148.258560	-950.187012	254.503387	131.957413	-1062.239746	367.721924	41.721222	-973.566345	262.392273	41.390553	-1083.313965	593.190796	607.972290	-1132.126831	587.091248	509.963165	-1055.389282	583.276978	534.822388	-1197.232422	587.615356	266.781464	-1088.603760	562.664429	216.833664	-981.373474	582.652588	176.588623	-1116.539062	500.273315	44.916668	-981.798767	570.605103	41.724312	-1123.364746	268.697723	433.249603	-1147.392456	368.180328	421.790680	-1163.158813	304.691528	49.618946	-994.208252	356.915497	47.217251	-1044.770142	466.668274	424.723022	-1164.105713	569.248779	440.175690	-1164.176270	490.789154	52.914444	-1062.639404	552.329773	47.562504	-1018.999268	318.439026	427.520142	-1155.275635	517.958496	432.449371	-1164.140991	330.803528	48.418098	-1019.489197	521.559448	50.238476	-1040.819336	327.561631	786.821773	-1025.475967	502.120916	792.640526	-1063.296525	
58	0.380000	444.194427	1274.654541	-964.868286	446.256348	1095.732422	-914.520264	428.393066	1212.379150	-1095.531372	423.965912	1159.209839	-1127.688232	543.148071	1178.185303	-933.617004	431.209869	875.588928	-915.199951	279.158356	870.858337	-1070.846680	522.042908	878.918274	-1123.447144	244.169525	586.347778	-1126.985229	232.250214	474.585602	-1078.194702	277.181885	531.951599	-1202.024414	282.838562	217.254272	-1032.861450	342.196503	148.260803	-950.181641	254.511063	131.973709	-1062.237671	367.729187	41.721916	-973.577454	262.400482	41.389606	-1083.315186	593.188049	607.959473	-1132.119995	587.095886	509.943237	-1055.390259	583.246460	534.821289	-1197.230957	587.610657	266.777039	-1088.611938	562.676819	216.826538	-981.387146	582.629211	176.584946	-1116.563599	500.275635	44.918713	-981.794006	570.593140	41.726753	-1123.375488	268.658783	433.291687	-1147.449951	368.206329	421.805481	-1163.143066	304.691711	49.621677	-994.203674	356.920624	47.217972	-1044.771484	466.646912	424.729187	-1164.081787	569.224487	440.166870	-1164.191406	490.779846	52.912872	-1062.640869	552.326721	47.563389	-1018.998291	318.432556	427.548584	-1155.296509	517.935669	432.448029	-1164.136597	330.806152	48.419827	-1019.487610	521.553284	50.238129	-1040.819580	327.581128	786.831932	-1025.432362	502.146649	792.624754	-1063.237267	
59	0.386667	444.260193	1274.668823	-964.969543	446.291260	1095.768677	-914.531006	428.455688	1212.336060	-1095.593750	424.031708	1159.144897	-1127.720337	543.189270	1178.201782	-933.640137	431.242432	875.577576	-915.154724	279.195679	870.871582	-1070.802734	522.089478	878.893494	-1123.384033	244.195572	586.355286	-1126.948730	232.269669	474.591492	-1078.165771	277.206604	531.960449	-1201.993896	282.854126	217.263519	-1032.845947	342.210632	148.261673	-950.177185	254.521332	131.985321	-1062.234009	367.738251	41.720013	-973.590210	262.409943	41.384270	-1083.314697	593.184509	607.945679	-1132.108521	587.097290	509.920074	-1055.392944	583.223389	534.815918	-1197.225464	587.606873	266.770782	-1088.618286	562.688599	216.822495	-981.396362	582.606628	176.580139	-1116.590698	500.278229	44.920624	-981.788391	570.579773	41.728828	-1123.383423	268.609436	433.336090	-1147.529419	368.212830	421.807800	-1163.090088	304.690399	49.624256	-994.198303	356.924652	47.218502	-1044.771362	466.625275	424.729492	-1164.054810	569.204468	440.155823	-1164.206177	490.771027	52.909542	-1062.641724	552.324524	47.562534	-1018.997070	318.411133	427.571960	-1155.309814	517.914917	432.442657	-1164.130493	330.807526	48.421379	-1019.484863	521.547791	50.236038	-1040.819458	327.601600	786.836168	-1025.387307	502.173552	792.601654	-1063.178391	
60	0.393333	444.326569	1274.682373	-965.067932	446.323273	1095.804688	-914.542236	428.519562	1212.296387	-1095.654541	424.100922	1159.074341	-1127.751831	543.227783	1178.221802	-933.658691	431.274384	875.559082	-915.109253	279.235168	870.877930	-1070.755493	522.137207	878.862366	-1123.320557	244.223648	586.361145	-1126.914062	232.290955	474.592896	-1078.136353	277.234924	531.969910	-1201.965088	282.867462	217.269608	-1032.830444	342.223846	148.261063	-950.171936	254.533890	131.991959	-1062.227173	367.748657	41.715401	-973.601379	262.418182	41.378544	-1083.312988	593.182312	607.931152	-1132.091064	587.096191	509.893005	-1055.396484	583.210571	534.805908	-1197.215576	587.603699	266.762848	-1088.623657	562.694946	216.824310	-981.396545	582.585754	176.573730	-1116.617188	500.280975	44.922112	-981.782166	570.566528	41.730003	-1123.387939	268.591095	433.359894	-1147.562622	368.195770	421.795563	-1162.999268	304.690826	49.625717	-994.194275	356.927612	47.219212	-1044.769165	466.607178	424.723206	-1164.023315	569.191223	440.143982	-1164.219360	490.763794	52.904255	-1062.641357	552.323059	47.560204	-1018.995544	318.393433	427.577728	-1155.281006	517.899231	432.433594	-1164.121338	330.809204	48.422462	-1019.481750	521.543457	50.232227	-1040.818481	327.624795	786.833588	-1025.340202	502.202474	792.572133	-1063.119575	
